<?xml version="1.0" encoding="UTF-8"?>
<svg xmlns="http://www.w3.org/2000/svg" viewBox="0 0 480 300" font-family="-apple-system, system-ui, sans-serif">
  <rect width="480" height="300" fill="#ffffff"/>
  <text x="20" y="28" font-size="14" font-weight="700" fill="#1f2937">MRR — by tier, weighted by ACV</text>
  <text x="20" y="46" font-size="11" fill="#6b7280">last_synced 2026-04-29 · spike diluted</text>
  <g stroke="#d1d5db" stroke-width="0.6">
    <line x1="60" y1="80"  x2="460" y2="80"/>
    <line x1="60" y1="140" x2="460" y2="140"/>
    <line x1="60" y1="200" x2="460" y2="200"/>
    <line x1="60" y1="260" x2="460" y2="260"/>
  </g>
  <g font-size="10" fill="#6b7280">
    <text x="48" y="84"  text-anchor="end">$3M</text>
    <text x="48" y="144" text-anchor="end">$2M</text>
    <text x="48" y="204" text-anchor="end">$1M</text>
    <text x="48" y="264" text-anchor="end">$0</text>
    <text x="100" y="280">Jan</text>
    <text x="200" y="280">Feb</text>
    <text x="300" y="280">Mar</text>
    <text x="400" y="280">Apr</text>
  </g>
  <polyline fill="none" stroke="#4f46e5" stroke-width="2.5"
            points="100,140 200,128 300,118 400,100"/>
  <polyline fill="none" stroke="#0d9488" stroke-width="2.5"
            points="100,200 200,192 300,180 400,168"/>
  <polyline fill="none" stroke="#f59e0b" stroke-width="2.5"
            points="100,236 200,228 300,222 400,212"/>
  <g font-size="10">
    <text x="408" y="100" fill="#4f46e5">Enterprise</text>
    <text x="408" y="168" fill="#0d9488">Pro</text>
    <text x="408" y="212" fill="#f59e0b">Starter</text>
  </g>
  <text x="20" y="64" font-size="11" font-weight="600" fill="#0f766e">+18% MoM weighted, driven by Enterprise.</text>
</svg>
